Coordinates
version=1
nRows=19
nColumns=34
inDegrees=yes

Units are S.I. units (second, meters, Newtons, ...)
If the header above contains a line with 'inDegrees', this indicates whether rotational values are in degrees (yes) or radians (no).

endheader
time	pelvis_tilt	pelvis_list	pelvis_rotation	pelvis_tx	pelvis_ty	pelvis_tz	hip_flexion_r	hip_adduction_r	hip_rotation_r	knee_angle_r	ankle_angle_r	subtalar_angle_r	mtp_angle_r	hip_flexion_l	hip_adduction_l	hip_rotation_l	knee_angle_l	ankle_angle_l	subtalar_angle_l	mtp_angle_l	lumbar_extension	lumbar_bending	lumbar_rotation	arm_flex_r	arm_add_r	arm_rot_r	elbow_flex_r	pro_sup_r	arm_flex_l	arm_add_l	arm_rot_l	elbow_flex_l	pro_sup_l
      5.96666670	      9.65583837	    -12.83284706	    -62.43462987	      1.56519174	      1.05300880	      3.47039487	      4.50105017	      4.18366690	      1.50585139	     34.85941524	     19.83336090	     10.17121341	      0.00000000	    -17.11425351	     14.31330270	     12.06669593	      1.83003701	     10.08047038	    -10.55042256	      0.00000000	    -12.04403336	     -9.05865997	     12.00943368	     19.98040764	      5.10723636	     17.91636156	     15.76047405	    109.58897259	     11.54502881	     14.02151311	     24.34070524	     14.28036393	     98.68939881
      5.98333330	      9.40628805	    -12.82495563	    -62.61569535	      1.56418913	      1.05332037	      3.46999614	      4.52893428	      4.20376745	      1.21499038	     35.12831128	     19.27687682	     10.87701016	      0.00000000	    -16.98679676	     14.06210601	     12.04140961	      1.66038465	      9.92403834	    -10.53513385	      0.00000000	    -11.99889783	     -8.95811240	     12.04971875	     20.16134303	      5.05469282	     17.69245141	     15.70725477	    109.57682449	     11.81571324	     13.62339222	     24.47192654	     14.58473254	     98.74111314
      6.00000000	      9.26635883	    -12.89306206	    -62.63218114	      1.56415844	      1.05353363	      3.46933966	      4.60481913	      4.11762501	      0.67627547	     35.72236904	     18.75864180	     11.28167109	      0.00000000	    -17.00343877	     13.90468359	     12.00532676	      1.53508016	      9.81108281	    -10.53593641	      0.00000000	    -11.99834354	     -8.75306410	     12.21740028	     20.25471409	      4.79973355	     17.40833946	     15.61179079	    109.54258564	     11.99969241	     13.41260704	     24.65576620	     15.00391086	     98.81574342
      6.01666670	      9.15910447	    -12.81698381	    -62.37587213	      1.56433754	      1.05359163	      3.46893312	      4.63674780	      3.78561041	     -0.51054164	     36.01791665	     18.59261752	     12.43083677	      0.00000000	    -16.80306070	     13.79377869	     12.19845686	      1.69457249	      9.74974997	    -10.74905882	      0.00000000	    -11.89358936	     -8.66579222	     12.04370308	     20.17686303	      4.78266822	     16.11131429	     15.69270411	    109.37737220	     11.96704528	     12.84941217	     25.66187601	     15.78550794	     99.20974257
      6.03333330	      9.24280443	    -12.69861802	    -62.25218120	      1.56365243	      1.05375235	      3.46865943	      4.57806052	      3.53915438	     -0.81548496	     36.15872816	     17.87411652	     12.08784736	      0.00000000	    -16.74219737	     13.85260940	     12.36644026	      1.63807248	      9.73638108	    -10.71565858	      0.00000000	    -11.89701169	     -8.90153882	     12.14506523	     20.12929045	      4.68055036	     15.84346335	     15.73416490	    109.35788945	     12.24821839	     12.53528897	     25.80151280	     15.79208592	     99.27679402
      6.05000000	      9.34215364	    -12.39588364	    -61.76442593	      1.56270785	      1.05377719	      3.46808341	      4.70315909	      3.41869909	     -0.84050311	     36.25883871	     17.03966357	     10.80242860	      0.00000000	    -16.54784062	     13.86949386	     12.81521404	      1.53623542	      9.54260622	    -10.57741019	      0.00000000	    -11.89795354	     -9.26626456	     11.67219177	     20.11954127	      4.81049034	     15.13200257	     15.96778665	    109.27932784	     12.58560853	     11.92018779	     26.27964775	     16.10460297	     99.49976892
      6.06666670	      9.32508744	    -12.21841833	    -61.53919362	      1.56202066	      1.05398776	      3.46774123	      4.73641221	      3.43336779	     -0.68888518	     36.30775464	     16.10974529	     10.26180993	      0.00000000	    -16.49218220	     13.80404417	     13.07601049	      1.26346809	      9.33921875	    -10.52689074	      0.00000000	    -11.87888797	     -9.38616281	     11.46919249	     20.05973618	      4.86888111	     14.63541928	     16.02068359	    109.21918143	     12.80990115	     11.44661511	     26.62525413	     16.28775832	     99.67090342
      6.08333330	      9.19471358	    -12.14147429	    -61.32012494	      1.56056327	      1.05439400	      3.46743541	      4.50722156	      3.81460923	     -0.23911175	     35.78054122	     15.04522317	      8.89354389	      0.00000000	    -16.53759326	     13.52840659	     13.66451567	      0.83022338	      9.02254600	    -10.90402261	      0.00000000	    -12.01072824	     -9.44025285	     11.15279087	     20.10633998	      5.12413935	     13.45507610	     16.20730068	    109.08760854	     13.13279332	     10.78979111	     27.72077296	     16.44613988	    100.18860557
      6.10000000	      9.07274060	    -11.96455433	    -61.42193247	      1.55870050	      1.05453819	      3.46685326	      4.60095081	      3.80331715	     -0.53951380	     35.55534665	     13.77029710	      8.86279427	      0.00000000	    -16.43632166	     13.39475999	     13.63286706	      0.37390399	      8.72926984	    -10.85000267	      0.00000000	    -12.07677572	     -9.56000192	     11.09573739	     20.29327933	      5.16496291	     13.36201934	     16.33506769	    109.09645335	     13.49934978	     10.37453489	     27.83639665	     16.51153306	    100.25719431
      6.11666670	      8.96241882	    -11.74191135	    -61.46654352	      1.55691728	      1.05470066	      3.46591104	      4.62205794	      3.83211861	     -0.73665444	     35.23004311	     13.06756644	      8.78677485	      0.00000000	    -16.23345985	     13.30284106	     13.60213509	      0.00000000	      8.60509818	    -10.80550145	      0.00000000	    -12.11474010	     -9.71998037	     10.99283038	     20.53620284	      5.09519105	     13.32272562	     16.45489425	    109.09881850	     13.90984432	     10.07374735	     27.88228793	     16.65004878	    100.28981053
      6.13333330	      8.68173619	    -11.58678823	    -60.73602961	      1.55633688	      1.05534648	      3.46411193	      4.64758326	      4.21136155	     -1.16494799	     34.74788573	     10.68058459	      6.70768542	      0.00000000	    -15.88334648	     12.86261518	     13.97714232	      0.00000000	      8.27294012	    -10.35420964	      0.00000000	    -12.19219141	     -9.47459153	     10.17247900	     20.62643500	      5.01738618	     13.06696580	     16.73180233	    109.14604190	     14.20673098	      9.46396540	     28.90025654	     17.29814459	    100.73473091
      6.15000000	      8.55465318	    -11.49554975	    -60.57620397	      1.55588942	      1.05587946	      3.46290509	      4.60115794	      4.25670577	     -1.38656199	     34.49763122	      9.41808609	      6.59964807	      0.00000000	    -15.65655209	     12.73113111	     14.02480620	      0.00000000	      8.03345983	    -10.12773087	      0.00000000	    -12.20972506	     -9.38381412	     10.25685260	     20.62793867	      4.64389841	     12.99678905	     16.78870071	    109.16580531	     14.48280560	      9.32643477	     29.11116235	     17.56571439	    100.84061815
      6.16666670	      8.22405175	    -11.89952726	    -59.82423417	      1.55634879	      1.05742322	      3.46265922	      3.54666050	      5.13263675	     -1.07373067	     33.12626942	      7.66153591	      4.82308822	      0.00000000	    -15.94186387	     11.96283894	     14.14422860	      0.00000000	      8.29546785	     -9.37581046	      0.00000000	    -12.53783742	     -8.76127004	      9.81393251	     20.36863688	      4.34587257	     12.83270618	     17.02453227	    109.44336005	     14.68890871	      8.95100507	     30.57149873	     17.84222528	    101.56601706
      6.18333330	      7.86006023	    -11.69459456	    -59.56694363	      1.55693825	      1.05791012	      3.46248927	      3.39236616	      5.31510789	     -1.35844373	     32.35684230	      6.59889915	      4.78331098	      0.00000000	    -15.57144526	     11.67230887	     14.10239495	      0.00000000	      8.17198405	     -9.05348589	      0.00000000	    -12.14365056	     -8.43965937	      9.54515722	     20.06039132	      4.12694958	     12.86146345	     17.38536982	    109.52215214	     14.54161054	      8.67834022	     30.75984551	     18.29293412	    101.68047507
      6.20000000	      7.39283388	    -12.04819264	    -59.00463641	      1.55798179	      1.05925702	      3.46325925	      2.26042185	      6.05443411	     -1.70341285	     30.77988491	      5.42390414	      4.26396839	      0.00000000	    -15.79134850	     10.85557799	     14.42691097	      0.00000000	      8.79335568	     -8.37171672	      0.00000000	    -12.07822319	     -7.72009112	      9.04579622	     19.55178356	      3.96309730	     12.80099482	     17.94621314	    109.73029371	     14.27995730	      8.29982109	     31.25392849	     18.84852423	    102.02755851
      6.21666670	      6.77247304	    -12.01050477	    -58.78341695	      1.55858320	      1.05999272	      3.46327291	      1.61884389	      6.60868048	     -2.05655494	     29.23133748	      4.86048311	      4.47387370	      0.00000000	    -15.43346273	     10.24491784	     14.28610687	      0.00000000	      8.78540047	     -8.03611370	      0.00000000	    -11.64538639	     -7.04113479	      8.78747012	     19.19680629	      3.73977329	     12.70047560	     18.41070357	    109.82165364	     14.01696436	      8.03564748	     31.37004414	     19.38711699	    102.18261467
      6.23333330	      6.18071169	    -11.85892580	    -58.24990242	      1.55983784	      1.06076159	      3.46279173	      0.65605034	      7.18233476	     -2.01514249	     26.92230939	      4.75349122	      4.60461746	      0.00000000	    -14.99443007	      9.65981091	     14.42148289	      0.00000000	      8.89927647	     -7.42655804	      0.00000000	    -11.28119622	     -6.35004103	      8.12759778	     18.79550066	      3.54320893	     12.57192279	     18.94068546	    109.92390588	     13.72665158	      7.85044890	     31.44027337	     19.74207193	    102.34780844
      6.25000000	      5.74140163	    -12.26575086	    -57.50904352	      1.56178501	      1.06251346	      3.46324902	     -1.43737201	      8.01937793	     -1.67666295	     23.78926850	      4.60316538	      4.90516675	      0.00000000	    -15.25382129	      8.83352865	     14.76046974	      0.00000000	      9.24814993	     -6.60771317	      0.00000000	    -11.36947719	     -5.48379968	      7.33300730	     18.26001891	      3.46957509	     12.11345156	     19.51358217	    110.10317088	     13.34860734	      7.80848406	     31.26342676	     20.06632557	    102.62807819
      6.26666670	      5.37560532	    -12.56185146	    -56.88566387	      1.56408667	      1.06390897	      3.46479780	     -3.49874568	      8.77004128	     -1.25294425	     20.88660880	      5.35725072	      5.04588465	      0.00000000	    -15.49864137	      8.16423549	     15.11394185	      0.00000000	      9.27279572	     -6.17818331	      0.00000000	    -11.02420601	     -4.78926123	      6.73306178	     17.51740382	      3.43560325	     11.12679089	     20.04524359	    110.28884340	     12.78549342	      7.74785589	     30.40149483	     20.48782052	    102.89411352
